<?xml version="1.0" encoding="UTF-8"?>
<svg id="Layer_1" data-name="Layer 1" xmlns="http://www.w3.org/2000/svg" viewBox="0 0 1000 1000">
  <defs>
    <style>
      .cls-1, .cls-2, .cls-3, .cls-4, .cls-5, .cls-6, .cls-7, .cls-8 {
        stroke-width: 0px;
      }

      .cls-2 {
        fill: #f2f2f2;
      }

      .cls-3 {
        fill: gray;
      }

      .cls-4 {
        fill: #88339e;
      }

      .cls-5 {
        fill: #c64ae6;
      }

      .cls-6 {
        fill: #ccc;
      }

      .cls-7 {
        fill: #fff;
      }

      .cls-8 {
        fill: red;
      }
    </style>
  </defs>
  <g id="V1">
    <path class="cls-1" d="M835.98,743.19c50.42-77.24,52.06-183.95,48.8-273.17,0,0,0-15.42,0-15.42V122.22h-347.79l85.7,142.96h17.17l-26.45,26.45-113.44-229.95-52.7,106.89C179.56,202.53,27.37,510.23,164.02,743.15l-80.78,163.85,203.09-1.1,11.52-24.48c119.79,75.85,284.53,75.86,404.3.02l11.52,24.5,203.09,1.1-80.78-163.85Z"/>
    <g>
      <path class="cls-3" d="M800.37,447.05l-.13-.07-21.47-12.87v-.29l21.47,12.87c.04.11.09.25.13.36Z"/>
      <path class="cls-1" d="M840.35,470.73l-40.12-24.04-21.47-12.87v.29l21.47,12.87.13.07,39.98,23.98.07.04c-.02-.11-.04-.22-.07-.34Z"/>
      <path class="cls-5" d="M151.84,517.56h123.77l-33.62,68.32h-90.15c-1.12-11.26-1.66-22.66-1.66-34.16s.54-22.9,1.66-34.16Z"/>
      <polygon class="cls-6" points="319.02 517.56 287.32 585.89 283.16 585.89 316.78 517.56 319.02 517.56"/>
      <path class="cls-5" d="M208.38,654.19l-23.89,48.56c-4.1-8.51-7.84-17.19-11.24-26.06-2.84-7.39-5.42-14.89-7.77-22.5h42.89Z"/>
      <path class="cls-4" d="M686.09,847.83c-10.48,6.6-21.33,12.67-32.51,18.16-46.38,22.79-98.52,35.57-153.57,35.57-.92,0-1.86,0-2.78-.02-15.65-.11-31.05-1.28-46.12-3.4-49.77-6.98-96.19-24.47-136.98-50.17l19.3-41.01h53.95c8.28,3.67,16.77,6.96,25.45,9.81,4.88,1.63,9.85,3.11,14.86,4.45,23.08,6.2,47.3,9.51,72.31,9.51,40.05,0,78.15-8.48,112.6-23.77h54.24l19.23,40.88Z"/>
      <path class="cls-5" d="M847.85,475.52v107.16c0,4.1-.2,8.19-.69,12.25-4.68,37.92-15.47,73.99-31.32,107.14l-44.03-87.33c3.87-16.72,6.25-34.03,6.96-51.74v-128.9l21.47,12.87.13.07,39.98,23.98.07.04,7.43,4.45Z"/>
      <path class="cls-7" d="M427.17,209.57l-43.63,88.67c-64.99,29.95-116.57,84.2-143.05,151.04h-74.99c36.92-120.35,137.16-213.25,261.68-239.71Z"/>
      <path class="cls-6" d="M566.86,280.83c-8.17-2.01-16.48-3.67-24.92-4.92-13.68-2.08-27.67-3.16-41.93-3.16s-28.27,1.07-41.97,3.16c-8.39,1.28-16.63,2.91-24.76,4.9l38.26-77.73s.09-.02.13-.02c9.36-.76,18.8-1.14,28.34-1.14s18.98.38,28.34,1.14c.04,0,.11,0,.16.02l16.7,33.87,19.81,40.16,1.84,3.72Z"/>
    </g>
    <path class="cls-7" d="M793.88,741.32l-38.3-77.7L499.99,145.21l-255.56,518.36-38.3,77.73-63.33,128.43,72.55-.4,47.48-.25,20.26-43.07,27.15-57.69h379.52l27.13,57.71,20.28,43.09,46.52.25,73.52.4-63.33-128.45ZM357.75,667.33l142.24-302.28,142.24,302.28h-284.49Z"/>
    <polygon class="cls-7" points="847.86 159.16 847.86 404.81 803.75 378.37 778.77 363.39 778.77 276.22 748.86 306.13 662.29 392.71 629.98 327.32 672.64 284.66 729.05 228.25 643.62 228.25 602.21 159.16 847.86 159.16"/>
    <polygon class="cls-8" points="798.99 159.16 798.13 159.16 798.56 158.74 798.99 159.16"/>
    <polygon class="cls-2" points="783.7 869.37 737.18 869.13 689.76 768.32 310.24 768.32 262.83 869.08 215.35 869.33 284.66 725.52 713.49 725.52 783.7 869.37"/>
    <polygon class="cls-6" points="691.64 767.95 691.64 768.02 691.62 767.95 691.64 767.95"/>
    <path class="cls-4" d="M208.38,654.19l-23.89,48.56c-4.1-8.51-7.84-17.19-11.24-26.06l26.01-22.5h9.11Z"/>
    <path class="cls-4" d="M847.85,581.75v.94c0,4.1-.2,8.19-.69,12.25-4.68,37.92-15.47,73.99-31.32,107.14l-44.03-87.33c3.87-16.72,6.25-34.03,6.96-51.74v-61.07l69.08,79.81Z"/>
    <polygon class="cls-5" points="541.88 596.25 458.13 596.25 481.57 546.47 500.01 507.24 541.88 596.25"/>
    <polygon class="cls-4" points="504.96 596.25 458.13 596.25 481.57 546.47 504.96 596.25"/>
    <polygon class="cls-5" points="681.52 275.77 725.57 329.43 662.29 392.71 629.98 327.32 681.52 275.77"/>
    <polygon class="cls-4" points="645.8 359.34 704.29 303.51 725.57 329.43 662.29 392.71 645.8 359.34"/>
  </g>
</svg>
